<!DOCTYPE svg PUBLIC "-//W3C//DTD SVG 1.1//EN" "http://www.w3.org/Graphics/SVG/1.1/DTD/svg11.dtd">
<!-- Uploaded to: SVG Repo, www.svgrepo.com, Transformed by: SVG Repo Mixer Tools -->
<svg fill="#666666" height="800px" width="800px" version="1.1" id="Layer_1" xmlns="http://www.w3.org/2000/svg" xmlns:xlink="http://www.w3.org/1999/xlink" viewBox="0 0 501.72 501.72" xml:space="preserve" stroke="#666666">
<g id="SVGRepo_bgCarrier" stroke-width="0"/>
<g id="SVGRepo_tracerCarrier" stroke-linecap="round" stroke-linejoin="round"/>
<g id="SVGRepo_iconCarrier"> <g> <g> <path d="M494.593,203.66l-75.733-65.067V22.327c0-11.733-9.6-21.333-21.333-21.333s-21.333,9.6-21.333,21.333v78.933l-110.933-96 c-8.533-6.4-20.267-6.4-27.733,0L7.126,202.593c-8.533,7.467-9.6,21.333-2.133,29.867c7.467,8.533,21.333,9.6,29.867,2.133 l18.133-16v261.333c0,11.733,9.6,21.333,21.333,21.333h352c11.733,0,21.333-9.6,22.4-21.333V218.593l18.133,16 c13.867,10.667,25.6,3.2,29.867-1.067C504.194,223.927,503.127,211.127,494.593,203.66z M406.06,459.66H95.66V182.327 l155.733-134.4l154.667,134.4V459.66z"/> </g> </g> </g>
</svg>