<?xml version="1.0" encoding="iso-8859-1"?>
<!-- Uploaded to: SVG Repo, www.svgrepo.com, Generator: SVG Repo Mixer Tools -->
<svg fill="#000000" height="800px" width="800px" version="1.1" id="Capa_1" xmlns="http://www.w3.org/2000/svg" xmlns:xlink="http://www.w3.org/1999/xlink" 
	 viewBox="0 0 57.264 57.264" xml:space="preserve">
<path d="M53.935,36.989l-12.162-3.905L34.436,6.487l-0.01-0.035c-0.463-1.465-0.987-2.748-1.559-3.811
	C31.992,1.009,30.293,0,28.428,0c-0.011,0-0.022,0-0.034,0c-1.893,0.012-3.538,1.012-4.401,2.673
	c-0.553,1.061-1.051,2.338-1.484,3.813l-7.011,25.416L3.324,36.99l-0.11,0.055c-1.01,0.577-1.658,1.614-1.734,2.774
	c-0.077,1.16,0.43,2.273,1.354,2.978l24.244,13.795c0.614,0.449,1.339,0.672,2.054,0.672c0.672,0,1.336-0.197,1.896-0.588
	L54.31,42.892c1.001-0.697,1.553-1.84,1.476-3.057C55.708,38.617,55.016,37.553,53.935,36.989z M20.808,20.168
	c2.345,1.025,5.02,1.585,7.664,1.585c2.959,0,5.87-0.982,7.629-1.71l2.084,7.556c-1.708,1.531-5.003,3.154-9.359,3.154
	c-4.27,0-8.211-1.29-10.043-3.246L20.808,20.168z M23.396,10.785l0.271,0.094c1.518,0.526,2.521,0.875,4.805,0.875
	c1.971,0,3.172-0.38,4.563-0.82l0.509-0.159l2.021,7.327c-1.571,0.67-4.336,1.652-7.094,1.652c-2.473,0-4.97-0.544-7.125-1.536
	L23.396,10.785z M24.431,7.035c0.394-1.335,0.842-2.492,1.336-3.438C26.282,2.604,27.27,2.007,28.407,2c0.007,0,0.014,0,0.021,0
	c1.144,0,2.143,0.592,2.677,1.587c0.51,0.95,0.983,2.111,1.407,3.45l0.499,1.809l-0.58,0.181c-1.334,0.422-2.298,0.727-3.96,0.727
	c-1.947,0-2.683-0.255-4.148-0.764l-0.394-0.136L24.431,7.035z M18.189,29.661c2.4,1.913,6.341,3.091,10.637,3.091
	c4.363,0,7.78-1.435,9.939-3.051l0.731,2.651l-0.001,0l0.565,2.047c0.011,0.04,0.016,0.08,0.025,0.12
	c0.198,0.831,0.089,1.69-0.294,2.401c-0.134,0.249-0.301,0.479-0.5,0.684c-1.389,1.436-4.394,3.147-10.821,3.147
	s-9.433-1.711-10.821-3.147c-0.793-0.82-1.087-2.048-0.769-3.206l0.96-3.478l-0.001,0L18.189,29.661z M14.831,34.463
	c-0.015,0.093-0.024,0.186-0.034,0.279c-0.014,0.131-0.025,0.262-0.03,0.392c-0.003,0.094-0.003,0.186-0.002,0.279
	c0.002,0.13,0.008,0.259,0.02,0.388c0.008,0.092,0.018,0.184,0.031,0.276c0.018,0.128,0.041,0.255,0.068,0.381
	c0.019,0.089,0.038,0.178,0.061,0.266c0.034,0.127,0.075,0.25,0.117,0.374c0.029,0.084,0.056,0.168,0.089,0.25
	c0.051,0.125,0.11,0.246,0.17,0.367c0.037,0.075,0.071,0.151,0.112,0.225c0.072,0.129,0.155,0.253,0.238,0.375
	c0.04,0.058,0.074,0.12,0.116,0.177c0.131,0.176,0.271,0.346,0.426,0.505c1.451,1.5,4.29,3.251,9.753,3.665
	c0.78,0.059,1.614,0.091,2.505,0.091s1.725-0.032,2.505-0.091c5.463-0.414,8.302-2.166,9.753-3.665
	c0.211-0.219,0.393-0.46,0.56-0.71c0.043-0.064,0.083-0.129,0.124-0.195c0.145-0.239,0.274-0.486,0.379-0.744
	c0.008-0.02,0.019-0.039,0.027-0.059c0.107-0.276,0.184-0.562,0.245-0.853c0.016-0.079,0.029-0.157,0.042-0.236
	c0.042-0.259,0.068-0.521,0.072-0.786c0-0.033,0.009-0.066,0.009-0.099l7.488,2.396L29.449,50.582L7.134,37.565l7.711-3.223
	C14.838,34.383,14.837,34.423,14.831,34.463z M53.229,41.211L29.945,54.995c-0.522,0.363-1.209,0.348-1.714-0.037L3.999,41.169
	c-0.365-0.301-0.556-0.742-0.524-1.218c0.032-0.479,0.28-0.892,0.685-1.142l0.697-0.291c0.039,0.032,0.067,0.073,0.112,0.099
	l24.526,14.307l22.515-14.327c0.044-0.028,0.071-0.071,0.109-0.105l0.957,0.306c0.424,0.248,0.683,0.668,0.714,1.164
	C53.822,40.482,53.596,40.952,53.229,41.211z"/>
</svg>